<?xml version="1.0" encoding="UTF-8"?>
<svg id="Layer_2" data-name="Layer 2" xmlns="http://www.w3.org/2000/svg" viewBox="0 0 328.51 64.71">
  <defs>
    <style>
      .cls-1 {
        fill: #231f20;
      }

      .cls-2 {
        fill: #1a1a1a;
      }

      .cls-3 {
        fill: #8dc63f;
      }
    </style>
  </defs>
  <g id="Layer_1-2" data-name="Layer 1">
    <g>
      <g>
        <path class="cls-1" d="M121.36,29.72v6.7h12.06v4.24h-12.06v9.84h-4.78v-25.01h18.38v4.24h-13.6Z"/>
        <path class="cls-1" d="M137.59,37.99c0-7.14,5.13-12.98,12.95-12.98s12.98,5.84,12.98,12.98-5.13,12.98-12.98,12.98-12.95-5.81-12.95-12.98ZM142.34,37.99c0,4.54,3.69,8.54,8.2,8.54s8.2-4,8.2-8.54-3.66-8.51-8.2-8.51-8.2,4-8.2,8.51Z"/>
        <path class="cls-1" d="M172.52,42.54v7.96h-4.75v-25.01h11.34c5.09,0,8.61,3.55,8.61,8.61,0,3.76-2.05,7.14-5.19,8l6.25,8.41h-5.71l-5.81-7.96h-4.75ZM172.52,38.37h5.47c4.03,0,4.99-2.19,4.99-4.31,0-2.43-1.47-4.34-4.99-4.34h-5.47v8.65Z"/>
        <path class="cls-1" d="M197.12,29.72v6.25h12.1v4.24h-12.1v6.05h13.63v4.24h-18.38v-25.01h18.38v4.24h-13.63Z"/>
        <path class="cls-1" d="M223.09,38.13l-9.5-12.64h5.98l6.49,9.02,6.49-9.02h5.95l-9.46,12.64,9.29,12.37h-5.98l-6.29-8.71-6.29,8.71h-5.98l9.29-12.37Z"/>
        <path class="cls-3" d="M256.75,50.5l-10.49-11.38v11.38h-4.78v-25.01h4.78v12.71l9.94-12.71h5.88l-10.28,12.95,11.28,12.06h-6.32Z"/>
        <path class="cls-3" d="M271.28,50.5h-4.78v-25.01h4.78v25.01Z"/>
        <path class="cls-3" d="M298.31,50.5l-16.47-14.86v14.86h-4.75v-25.01h.51l16.43,15.14v-15.14h4.78v25.01h-.51Z"/>
        <path class="cls-3" d="M328.45,36.83c.07,1.26.1,2.05,0,3.21-.55,6.39-5.3,10.93-12.27,10.93-7.45,0-13.26-5.81-13.26-12.95s5.81-12.98,12.95-12.98c4.48,0,8.44,2.29,10.76,5.77l-4.03,2.49c-1.47-2.12-4-3.79-6.73-3.79-4.51,0-8.2,4-8.2,8.51s3.69,8.51,8.65,8.51c3.86,0,6.63-2.39,7.04-5.4h-9.23v-4.31h14.32Z"/>
      </g>
      <g>
        <path class="cls-2" d="M11.05,59.4h85.72v3.68c0,.9-.73,1.63-1.63,1.63H12.68c-.9,0-1.63-.73-1.63-1.63v-3.68h0Z"/>
        <path class="cls-3" d="M107.81,17.19c-10.8,9.72-11.04,37.86-11.04,37.86H11.05s-.25-28.14-11.05-37.86c.71.57,7.43,5.66,19.74,4.29,0,0-9.42,22.46,11.59,26.08,21.01,3.62,19.8-18.11,14.96-23.91-4.82-5.8-7-6.52-7-6.52,0,0,9.66-2.9,14.61-17.14,4.95,14.24,14.61,17.14,14.61,17.14,0,0-2.17.72-7.01,6.52-4.82,5.8-6.03,27.53,14.97,23.91,21.01-3.62,11.59-26.08,11.59-26.08,12.31,1.37,19.03-3.72,19.73-4.29Z"/>
      </g>
      <g>
        <path class="cls-1" d="M148.01,57.82l2.03,3.46,2.07-3.46h.63l-2.44,4.06v2.47h-.54v-2.47l-2.38-4.06h.62Z"/>
        <path class="cls-1" d="M154.92,61.08c0-1.87,1.38-3.41,3.3-3.41s3.33,1.53,3.33,3.41-1.39,3.41-3.33,3.41-3.3-1.53-3.3-3.41ZM155.46,61.08c0,1.58,1.24,2.93,2.76,2.93s2.78-1.35,2.78-2.93-1.24-2.93-2.78-2.93-2.76,1.36-2.76,2.93Z"/>
        <path class="cls-1" d="M164.49,61.79v-3.98h.54v3.9c0,1.83,1.33,2.28,2.15,2.28s2.13-.46,2.13-2.28v-3.9h.53v3.98c0,1.63-1.04,2.69-2.66,2.69s-2.69-1.05-2.69-2.69Z"/>
        <path class="cls-1" d="M173.76,62.03v2.32h-.54v-6.53h2.86c1.21,0,2.07.87,2.07,2.11,0,1.09-.62,1.9-1.78,2.08l1.69,2.34h-.67l-1.65-2.32h-1.96ZM173.76,61.53h2.23c.76,0,1.61-.46,1.61-1.6,0-.57-.29-1.63-1.61-1.63h-2.23v3.23Z"/>
        <path class="cls-1" d="M189.96,58.3h-2.07v6.05h-.54v-6.05h-2.04v-.48h4.66v.48Z"/>
        <path class="cls-1" d="M193.46,62.03v2.32h-.54v-6.53h2.86c1.21,0,2.07.87,2.07,2.11,0,1.09-.62,1.9-1.78,2.08l1.69,2.34h-.67l-1.65-2.32h-1.96ZM193.46,61.53h2.23c.76,0,1.61-.46,1.61-1.6,0-.57-.29-1.63-1.61-1.63h-2.23v3.23Z"/>
        <path class="cls-1" d="M199.98,64.35l3.13-6.53h.19l3.13,6.53h-.59l-.67-1.39h-3.94l-.67,1.39h-.59ZM201.48,62.46h3.44l-1.72-3.63-1.72,3.63Z"/>
        <path class="cls-1" d="M209.13,64.35v-6.53h2.44c1.91,0,3.19,1.05,3.19,3.27s-1.28,3.27-3.19,3.27h-2.44ZM209.68,63.87h1.78c1.01,0,2.76-.37,2.76-2.78s-1.76-2.79-2.76-2.79h-1.78v5.57Z"/>
        <path class="cls-1" d="M218.42,64.35h-.54v-6.53h.54v6.53Z"/>
        <path class="cls-1" d="M227.44,64.35h-.18l-4.82-5.3v5.3h-.54v-6.53h.17l4.83,5.28v-5.28h.54v6.53Z"/>
        <path class="cls-1" d="M235.77,59.14c-.51-.6-1.24-.96-2.04-.96-1.52,0-2.77,1.35-2.77,2.92s1.16,2.91,2.77,2.91,2.66-1.04,2.66-2.42h-2.74v-.48h3.29c.12,1.86-1.07,3.39-3.21,3.39-1.92,0-3.3-1.53-3.3-3.4s1.47-3.41,3.3-3.41c.99,0,1.89.45,2.48,1.15l-.44.3Z"/>
        <path class="cls-1" d="M246.64,57.82c1.79,0,2.5.97,2.5,2.19s-.81,2.13-2.37,2.13h-2.03v2.2h-.54v-6.53h2.44ZM246.81,61.66c1.2,0,1.79-.77,1.79-1.65s-.62-1.71-1.84-1.71h-2.02v3.36h2.07Z"/>
        <path class="cls-1" d="M250.73,64.35l3.13-6.53h.19l3.13,6.53h-.59l-.67-1.39h-3.94l-.67,1.39h-.59ZM252.23,62.46h3.44l-1.72-3.63-1.72,3.63Z"/>
        <path class="cls-1" d="M260.43,62.03v2.32h-.54v-6.53h2.86c1.21,0,2.07.87,2.07,2.11,0,1.09-.62,1.9-1.78,2.08l1.69,2.34h-.67l-1.65-2.32h-1.96ZM260.43,61.53h2.23c.76,0,1.61-.46,1.61-1.6,0-.57-.29-1.63-1.61-1.63h-2.23v3.23Z"/>
        <path class="cls-1" d="M271.8,58.3h-2.07v6.05h-.54v-6.05h-2.04v-.48h4.66v.48Z"/>
        <path class="cls-1" d="M280.29,64.35h-.18l-4.82-5.3v5.3h-.54v-6.53h.17l4.83,5.28v-5.28h.54v6.53Z"/>
        <path class="cls-1" d="M284.22,58.3v2.61h3.46v.48h-3.46v2.48h3.93v.48h-4.47v-6.53h4.47v.48h-3.93Z"/>
        <path class="cls-1" d="M291.68,62.03v2.32h-.54v-6.53h2.86c1.21,0,2.07.87,2.07,2.11,0,1.09-.62,1.9-1.78,2.08l1.69,2.34h-.67l-1.65-2.32h-1.96ZM291.68,61.53h2.23c.76,0,1.61-.46,1.61-1.6,0-.57-.29-1.63-1.61-1.63h-2.23v3.23Z"/>
      </g>
      <rect class="cls-1" x="303.77" y="61.82" width="13.94" height=".5"/>
      <rect class="cls-1" x="125.99" y="61.82" width="13.94" height=".5"/>
    </g>
  </g>
</svg>