<?xml version="1.0" encoding="UTF-8"?>
<svg id="Layer_2" data-name="Layer 2" xmlns="http://www.w3.org/2000/svg" viewBox="0 0 148.17 88.94">
  <defs>
    <style>
      .cls-1 {
        fill: #1a1a1a;
      }

      .cls-2 {
        fill: #8dc63f;
      }
    </style>
  </defs>
  <g id="Layer_1-2" data-name="Layer 1">
    <g>
      <path class="cls-1" d="M15.18,81.64h117.81v5.67c0,.9-.73,1.63-1.63,1.63H16.81c-.9,0-1.63-.73-1.63-1.63v-5.67h0Z"/>
      <path class="cls-2" d="M148.17,23.63c-14.85,13.36-15.17,52.04-15.17,52.04H15.19s-.34-38.68-15.19-52.04c.97.78,10.21,7.78,27.13,5.9,0,0-12.94,30.86,15.93,35.84,28.87,4.98,27.21-24.89,20.57-32.86-6.63-7.96-9.62-8.96-9.62-8.96,0,0,13.27-3.98,20.08-23.55,6.81,19.57,20.08,23.55,20.08,23.55,0,0-2.99,1-9.63,8.96-6.63,7.97-8.29,37.83,20.58,32.86,28.87-4.98,15.93-35.84,15.93-35.84,16.93,1.88,26.15-5.12,27.12-5.9Z"/>
    </g>
  </g>
</svg>